<?xml version="1.0" encoding="UTF-8" standalone="no"?>
<svg
   width="460.34378"
   height="416.41998"
   viewBox="0 0 460.34378 416.41998"
   version="1.1"
   id="svg14"
   sodipodi:docname="monologo.svg"
   inkscape:export-filename="monologo.svg"
   inkscape:export-xdpi="96"
   inkscape:export-ydpi="96"
   xmlns:inkscape="http://www.inkscape.org/namespaces/inkscape"
   xmlns:sodipodi="http://sodipodi.sourceforge.net/DTD/sodipodi-0.dtd"
   xmlns="http://www.w3.org/2000/svg"
   xmlns:svg="http://www.w3.org/2000/svg">
  <defs
     id="defs14" />
  <sodipodi:namedview
     id="namedview14"
     pagecolor="#ffffff"
     bordercolor="#000000"
     borderopacity="0"
     inkscape:showpageshadow="false"
     inkscape:pageopacity="0.0"
     inkscape:pagecheckerboard="true"
     inkscape:deskcolor="#d1d1d1"
     showborder="false"
     borderlayer="false"
     inkscape:antialias-rendering="false">
    <inkscape:page
       x="0"
       y="0"
       width="460.34378"
       height="416.41998"
       id="page1"
       margin="0"
       bleed="0" />
  </sodipodi:namedview>
  <!-- Person -->
  <ellipse
     cx="128.18047"
     cy="38.711384"
     fill="#ffffff"
     id="circle1"
     rx="39.615181"
     ry="38.711384"
     style="fill:#000000;fill-opacity:1;stroke-width:1.08779" />
  <path
     d="m 50.124306,138.72282 c 0.607991,-37.35042 33.479672,-68.484839 78.119224,-68.484839 44.63956,0 78.11922,31.129469 78.11922,68.484839 l 0.49896,38.97589 H 49.489856 Z"
     fill="#ffffff"
     id="path1"
     style="fill:#000000;fill-opacity:1;stroke-width:1.47353"
     sodipodi:nodetypes="sssccs" />
  <!-- Checkmark -->
  <!-- Table grid -->
  <line
     x1="227.64862"
     y1="207.54568"
     x2="227.64862"
     y2="416.41998"
     stroke="#ffffff"
     stroke-width="17.1981"
     id="line2-7"
     style="stroke:#000000;stroke-opacity:1" />
  <line
     x1="-2.8618135e-08"
     y1="212.49573"
     x2="460.34378"
     y2="212.49573"
     stroke="#ffffff"
     stroke-width="14.6897"
     id="line6-2-3"
     style="stroke:#000000;stroke-opacity:1" />
  <!-- Table marks -->
  <path
     d="m 303.48663,278.03941 101.91321,95.27572 m 0,-95.27572 -101.91321,95.27572"
     fill="none"
     stroke="#ffffff"
     stroke-width="30.7933"
     stroke-linecap="round"
     stroke-linejoin="round"
     id="path10"
     style="stroke:#000000;stroke-opacity:1" />
  <path
     d="m 46.295025,333.46024 17.992254,37.19653 99.312201,-90.62031"
     fill="none"
     stroke="#ffffff"
     stroke-width="32.9848"
     stroke-linecap="round"
     stroke-linejoin="round"
     id="path7-9-5"
     style="stroke:#000000;stroke-opacity:1"
     sodipodi:nodetypes="ccc" />
  <path
     id="path3"
     style="display:inline;opacity:1;fill:#000000;fill-opacity:1;stroke-width:1.03115"
     d="m 341.65242,9.8307702 c -41.42136,0 -75,33.5786408 -75,75.0000008 0,41.421359 33.57864,74.999999 75,74.999999 41.42136,0 75,-33.57864 75,-74.999999 0,-41.42136 -33.57864,-75.0000008 -75,-75.0000008 z m 37.54883,33.5371108 a 12.5,12.5 0 0 1 7.57813,2.67187 12.5,12.5 0 0 1 2.10156,17.55274 l -49.32031,62.738279 a 12.50125,12.50125 0 0 1 -19.21875,0.52149 L 290.03719,92.348351 a 12.5,12.5 0 0 1 1.14453,-17.64063 12.5,12.5 0 0 1 17.64062,1.14258 l 20.37891,23.20508 40.02539,-50.91406 a 12.5,12.5 0 0 1 8.3418,-4.68555 12.5,12.5 0 0 1 1.63281,-0.0879 z" />
</svg>
